<?xml version="1.0" standalone="no"?>
<!DOCTYPE svg PUBLIC "-//W3C//DTD SVG 20010904//EN"
 "http://www.w3.org/TR/2001/REC-SVG-20010904/DTD/svg10.dtd">
<svg version="1.0" xmlns="http://www.w3.org/2000/svg"
 width="260.000000pt" height="260.000000pt" viewBox="0 0 260.000000 260.000000"
 preserveAspectRatio="xMidYMid meet">
<metadata>
Created by potrace 1.11, written by Peter Selinger 2001-2013
</metadata>
<g transform="translate(0.000000,260.000000) scale(0.100000,-0.100000)"
fill="#000000" stroke="none">
<path d="M1239 2478 c-11 -13 -35 -50 -53 -83 -55 -100 -88 -158 -113 -197
-12 -21 -23 -40 -23 -43 0 -4 -90 -163 -173 -305 -11 -19 -34 -60 -50 -90 -16
-30 -33 -60 -38 -66 -5 -6 -6 -14 -2 -17 9 -10 1001 -8 1007 1 4 7 -201 380
-309 562 -18 30 -52 91 -75 135 -55 104 -75 125 -117 125 -23 0 -41 -7 -54
-22z"/>
<path d="M930 2426 c-19 -13 -69 -45 -110 -71 -41 -27 -118 -76 -170 -110 -52
-34 -126 -82 -165 -107 -196 -126 -245 -159 -245 -167 0 -9 64 -61 75 -61 4 0
38 -20 76 -45 38 -25 72 -45 75 -45 3 0 37 -20 76 -46 39 -25 77 -44 85 -42 8
2 30 32 50 68 19 36 48 86 64 113 16 26 29 50 29 53 0 3 20 39 45 80 25 40 45
76 45 79 0 2 34 64 75 136 76 133 84 156 63 177 -17 17 -29 15 -68 -12z"/>
<path d="M1577 2443 c-14 -14 -6 -44 32 -110 21 -37 52 -93 68 -123 17 -30 44
-78 59 -106 16 -27 70 -123 119 -212 78 -141 93 -162 111 -157 12 2 88 46 170
96 82 50 161 97 177 105 15 8 27 21 27 29 0 14 -223 166 -520 354 -63 40 -134
86 -157 102 -40 28 -72 36 -86 22z"/>
<path d="M167 1803 c-4 -3 -7 -178 -7 -388 0 -401 2 -424 42 -388 10 9 18 19
18 23 0 4 21 41 48 81 26 41 52 83 59 94 7 11 38 61 69 110 32 50 62 99 69
110 6 11 28 47 49 79 26 40 36 64 30 73 -11 16 -342 213 -358 213 -7 0 -16 -3
-19 -7z"/>
<path d="M2206 1704 c-127 -75 -176 -110 -172 -120 3 -8 23 -40 44 -72 21 -31
65 -101 98 -155 32 -55 65 -109 72 -120 77 -128 142 -222 153 -222 12 0 14 65
17 398 2 381 1 397 -16 397 -11 0 -99 -48 -196 -106z"/>
<path d="M830 1517 c0 -7 6 -21 13 -32 8 -11 27 -45 44 -75 17 -30 53 -95 82
-143 28 -49 51 -91 51 -94 0 -3 15 -31 34 -62 19 -31 43 -72 54 -91 11 -19 43
-75 72 -125 29 -49 63 -111 76 -137 13 -27 29 -48 34 -48 10 0 70 100 163 270
16 30 37 66 46 80 9 14 29 48 43 75 15 28 69 124 121 215 52 91 93 168 90 173
-2 4 -211 7 -464 7 -366 0 -459 -3 -459 -13z"/>
<path d="M648 1463 c-8 -10 -67 -94 -130 -188 -63 -93 -167 -247 -231 -342
-64 -95 -117 -181 -117 -191 0 -29 19 -39 90 -46 91 -9 319 -32 485 -50 77 -8
187 -20 245 -25 58 -6 122 -13 143 -16 20 -3 37 -2 37 3 0 4 -21 43 -46 87
-25 44 -59 105 -76 135 -17 30 -72 127 -123 215 -50 88 -104 183 -119 210 -57
104 -131 225 -137 225 -3 0 -13 -8 -21 -17z"/>
<path d="M1903 1468 c-10 -13 -64 -105 -115 -198 -14 -25 -55 -96 -92 -159
-36 -62 -66 -115 -66 -117 0 -3 -10 -21 -23 -42 -13 -20 -37 -62 -54 -92 -16
-30 -54 -97 -83 -148 -29 -51 -50 -96 -46 -99 7 -7 175 6 461 36 545 57 535
55 535 88 0 15 -26 54 -229 353 -57 85 -141 208 -184 273 -44 64 -83 117 -87
117 -4 0 -12 -6 -17 -12z"/>
<path d="M245 541 c-7 -12 11 -41 25 -41 7 0 99 -40 205 -90 22 -10 76 -34
120 -53 44 -19 109 -48 145 -64 309 -142 443 -196 458 -186 15 9 17 35 20 177
2 129 0 166 -10 166 -18 0 -264 26 -428 45 -492 56 -526 59 -535 46z"/>
<path d="M2196 539 c-32 -5 -104 -13 -160 -19 -56 -5 -184 -19 -286 -30 -102
-11 -226 -24 -277 -29 -50 -5 -97 -12 -102 -16 -16 -9 -15 -317 1 -333 19 -19
39 -15 134 29 49 22 103 47 119 54 59 26 221 99 295 132 41 19 101 46 133 59
205 87 281 126 285 147 3 14 -4 17 -40 16 -24 -1 -70 -5 -102 -10z"/>
</g>
</svg>
